{"title":"[ShepardTDS] Beyond the Boundary Dual Audio [1080p 8-bit x265 HE","uid":13242318,"size":4131856834,"categoryP":"video","categoryS":"tv_shows","magnet":"?xt=urn:btih:9643f2a3a35fe3dc8d879ad2c8205db225f265cb&amp;dn=%5BShepardTDS%5D+Beyond+the+Boundary+Dual+Audio+%5B1080p+8-bit+x265+HE&amp;tr=udp%3A%2F%2Ftracker.leechers-paradise.org%3A6969&amp;tr=udp%3A%2F%2Fzer0day.ch%3A1337&amp;tr=udp%3A%2F%2Fopen.demonii.com%3A1337&amp;tr=udp%3A%2F%2Ftracker.coppersurfer.tk%3A6969&amp;tr=udp%3A%2F%2Fexodus.desync.com%3A6969","seeders":2,"leechers":2,"uploader":"ShepardTDS","files":17,"time":1453065388,"description":"http://extraimago.com/images/2016/01/11/HB0180_BeyondtheBoundary.png\r\n\r\nConstant Quality encoding.\r\nVariable Bit rates\r\nED and OP included\r\nBlu-Ray Source\r\nPrequel OVA included\r\n \nhttp://extraimago.com/images/2016/01/17/sample1.jpg\r\n \nhttp://extraimago.com/images/2016/01/17/sample2.jpg\r\n\r\nGeneral\r\n\r\nFormat : Matroska\r\nFile size : 252 MiB-391 MiB\r\nDuration : 23mn 43s\r\nOverall bit rate : 1,485 Kbps-2,306 Kbps\r\nEncoded date : UTC 2016-01-10 18:42:01\r\nWriting application : mkvmerge v8.5.2 ('Crosses') 32bit\r\nWriting library : libebml v1.3.3 + libmatroska v1.4.4\r\n\r\nVideo\r\nID : 1\r\nFormat : V_MPEGH/ISO/HEVC\r\nCodec ID : V_MPEGH/ISO/HEVC\r\nDuration : 23mn 43s\r\nBit rate : 1,071 Kbps-1,876 Kbps\r\nWidth : 1 920 pixels\r\nHeight : 1 080 pixels\r\nDisplay aspect ratio : 16:9\r\nFrame rate : 23.976 fps\r\nBits/(Pixel*Frame) : 0.022\r\nStream size : 182 MiB (72%)\r\n\r\nAudio #1\r\nID : 2\r\nFormat : AC-3\r\nFormat/Info : Audio Coding 3\r\nMode extension : CM (complete main)\r\nCodec ID : A_AC3\r\nDuration : 23mn 43s\r\nBit rate mode : Constant\r\nBit rate : 192 Kbps\r\nChannel(s) : 2 channels\r\nChannel positions : Front: L R\r\nSampling rate : 48.0 KHz\r\nBit depth : 16 bits\r\nCompression mode : Lossy\r\nStream size : 32.6 MiB (13%)\r\nLanguage : English\r\n\r\nAudio #2\r\nID : 3\r\nFormat : AC-3\r\nFormat/Info : Audio Coding 3\r\nMode extension : CM (complete main)\r\nCodec ID : A_AC3\r\nDuration : 23mn 43s\r\nBit rate mode : Constant\r\nBit rate : 192 Kbps\r\nChannel(s) : 2 channels\r\nChannel positions : Front: L R\r\nSampling rate : 48.0 KHz\r\nBit depth : 16 bits\r\nCompression mode : Lossy\r\nStream size : 32.6 MiB (13%)\r\nLanguage : Japanese\r\n\r\nText #1\r\nID : 4\r\nFormat : ASS\r\nCodec ID : S_TEXT/ASS\r\nCodec ID/Info : Advanced Sub Station Alpha\r\nCompression mode : Lossless\r\nTitle : English Signs &amp; Songs\r\nLanguage : English\r\n\r\nText #2\r\nID : 5\r\nFormat : ASS\r\nCodec ID : S_TEXT/ASS\r\nCodec ID/Info : Advanced Sub Station Alpha\r\nCompression mode : Lossless\r\nTitle : English Subtitles\r\nLanguage : English\r\n\r\nMenu\r\n00:00:00.000 : en:Chapter 01\r\n00:02:33.027 : en:Chapter 02\r\n00:04:02.992 : en:Chapter 03\r\n00:12:53.981 : en:Chapter 04\r\n00:22:07.409 : en:Chapter 05\r\n00:23:25.987 : en:Chapter 06","torrent":{"xt":"urn:btih:9643f2a3a35fe3dc8d879ad2c8205db225f265cb","amp;dn":"%5BShepardTDS%5D+Beyond+the+Boundary+Dual+Audio+%5B1080p+8-bit+x265+HE","amp;tr":["udp%3A%2F%2Ftracker.leechers-paradise.org%3A6969","udp%3A%2F%2Fzer0day.ch%3A1337","udp%3A%2F%2Fopen.demonii.com%3A1337","udp%3A%2F%2Ftracker.coppersurfer.tk%3A6969","udp%3A%2F%2Fexodus.desync.com%3A6969"],"infoHash":"9643f2a3a35fe3dc8d879ad2c8205db225f265cb","infoHashBuffer":{"type":"Buffer","data":[150,67,242,163,163,95,227,220,141,135,154,210,200,32,93,178,37,242,101,203]},"announce":[],"urlList":[]}}